<svg width="18.949" height="24px" viewBox="0 0 18.949 19.324" xmlns="http://www.w3.org/2000/svg"><g id="svgGroup" stroke-linecap="round" fill-rule="nonzero" font-size="9pt" stroke="#ffffff" stroke-width="0.25mm" fill="#e8eaed" style="stroke:#ffffff;stroke-width:0.25mm;fill:#e8eaed"><path d="M 4.09 17.344 L 18.34 17.344 A 0.589 0.589 0 0 1 18.773 17.52 A 0.575 0.575 0 0 1 18.949 17.941 L 18.949 18.727 A 0.575 0.575 0 0 1 18.773 19.148 A 0.589 0.589 0 0 1 18.34 19.324 L 3.973 19.324 Q 2.895 19.324 1.981 18.797 Q 1.066 18.27 0.539 17.356 Q 0.012 16.441 0.012 15.363 L 0.012 9.867 A 1.161 1.161 0 0 1 0.357 9.023 A 1.132 1.132 0 0 1 1.195 8.672 L 13.254 8.672 A 3.221 3.221 0 0 0 15.586 7.723 A 3.228 3.228 0 0 0 16.594 5.414 L 16.594 5.332 L 16.594 5.215 A 3.226 3.226 0 0 0 15.574 2.936 A 3.217 3.217 0 0 0 13.254 1.992 L 0.598 1.992 A 0.575 0.575 0 0 1 0.176 1.816 A 0.575 0.575 0 0 1 0 1.395 L 0 0.609 A 0.595 0.595 0 0 1 0.176 0.182 Q 0.352 0 0.598 0 L 13.254 0 A 5.26 5.26 0 0 1 15.293 0.404 A 5.323 5.323 0 0 1 17.027 1.57 A 5.285 5.285 0 0 1 18.158 3.24 Q 18.563 4.184 18.586 5.215 L 18.586 5.414 Q 18.563 6.469 18.158 7.43 Q 17.754 8.391 16.998 9.129 A 5.327 5.327 0 0 1 15.258 10.266 A 5.386 5.386 0 0 1 13.219 10.664 L 2.262 10.664 A 0.248 0.248 0 0 0 2.08 10.74 A 0.248 0.248 0 0 0 2.004 10.922 L 2.004 15.246 A 2.03 2.03 0 0 0 2.613 16.729 Q 3.223 17.344 4.09 17.344 Z M 13.102 6.328 L 0.598 6.328 A 0.575 0.575 0 0 1 0.176 6.152 A 0.575 0.575 0 0 1 0 5.731 L 0 4.945 A 0.595 0.595 0 0 1 0.176 4.518 Q 0.352 4.336 0.598 4.336 L 13.102 4.336 Q 13.348 4.336 13.523 4.518 A 0.595 0.595 0 0 1 13.699 4.945 L 13.699 5.731 A 0.575 0.575 0 0 1 13.523 6.152 A 0.575 0.575 0 0 1 13.102 6.328 Z"/></g></svg>